<svg width="339" height="314" viewBox="0 0 339 314" fill="none" xmlns="http://www.w3.org/2000/svg">
<path d="M259.006 306.941L245.348 276.102C244.177 273.76 241.055 271.418 238.713 270.247C235.201 269.076 231.689 267.514 228.177 265.953C227.396 265.563 227.006 265.563 226.226 265.953C225.835 265.953 225.445 266.734 225.055 267.124L218.031 285.471C216.86 288.203 214.909 290.155 212.177 290.936C209.445 291.717 206.714 290.936 204.762 288.594L180.957 267.124C177.445 264.001 175.104 257.756 175.494 253.071L178.616 229.259C179.006 226.527 177.835 222.233 176.275 220.281C172.372 215.207 168.86 209.351 165.348 203.886C164.177 201.934 161.055 199.983 158.714 199.983L142.714 199.592C137.641 199.592 132.177 195.689 130.226 191.004L117.348 156.263C116.567 153.53 116.567 150.798 117.738 148.455C118.909 146.113 120.86 144.161 123.592 142.99L136.86 138.306C138.421 137.525 139.592 135.574 139.592 133.622C138.811 127.766 138.031 122.301 138.031 116.836C138.031 114.104 136.08 109.81 134.519 107.858L113.836 85.9982C110.323 82.485 108.762 76.2393 109.933 71.1646L115.787 47.3528C116.567 44.23 118.519 42.2782 120.86 41.4975C123.202 40.7167 126.323 41.1071 128.665 43.0589L149.738 59.0635C151.299 60.2346 152.86 59.4539 153.64 58.2828C155.201 56.331 156.762 54.3793 158.714 52.8178C160.665 51.2564 161.445 48.1335 161.055 46.1817L151.689 14.9531C150.909 12.2206 151.299 9.48814 152.86 7.14599C154.421 4.80385 156.762 3.24241 159.494 2.85205L176.275 0.119562C181.348 -0.661153 187.201 2.4617 189.543 7.14599L203.201 37.9842C203.982 40.3264 207.494 42.6685 209.835 43.8396C213.348 45.0107 216.86 46.5721 220.372 48.1335C221.153 48.5239 221.933 48.5239 222.323 48.1335C222.713 48.1335 223.104 47.3528 223.494 46.9625L230.518 28.6157C231.689 25.8832 233.64 23.9314 236.372 23.1506C239.104 22.3699 241.835 23.1507 243.787 25.4928L267.591 46.9625C271.104 50.0853 273.445 56.331 273.055 61.0153L269.933 84.8271C269.543 87.5596 270.713 91.8536 272.274 93.8054C276.177 98.88 279.689 104.345 283.201 110.2C284.372 112.152 287.494 114.104 289.835 114.104L305.835 114.494C310.908 114.494 316.372 118.398 318.323 123.082L331.201 157.824C331.982 160.557 331.981 163.289 330.811 165.631C329.64 167.973 327.689 169.925 324.957 171.096L311.689 175.78C310.128 176.561 308.957 178.513 308.957 180.465C309.738 186.32 310.518 191.785 310.518 197.25C310.518 199.983 312.469 204.277 314.03 206.228L334.713 228.088C338.225 231.602 339.786 237.847 338.616 242.922L332.762 266.734C331.981 269.857 330.03 271.808 327.689 272.589C325.347 273.37 322.225 272.979 319.884 271.028L298.811 255.023C297.25 253.852 295.689 254.633 294.908 255.804C293.348 257.756 291.786 259.707 289.835 261.269C287.884 262.83 287.104 265.953 287.494 267.905L296.86 299.133C297.64 301.866 297.25 304.598 295.689 306.941C294.128 309.283 291.787 310.844 289.055 311.235L272.274 313.967C271.884 313.967 271.104 313.967 270.713 313.967C265.64 314.357 260.957 311.235 259.006 306.941ZM303.103 249.558L324.177 265.563C324.567 265.953 324.567 265.953 324.957 265.953C324.957 265.953 324.957 265.563 325.347 265.172L331.201 241.361C331.591 239.018 330.811 235.505 329.25 233.553L308.567 211.693C305.445 208.57 303.104 202.715 302.713 198.031C302.323 192.956 301.933 187.491 301.152 182.026C300.372 176.561 303.494 171.096 308.567 169.144L321.445 164.46C322.225 164.07 322.616 163.679 323.006 162.899C323.396 162.118 323.396 161.337 323.006 160.947L310.128 125.815C309.347 123.863 307.006 121.911 304.665 121.911L288.665 121.521C283.591 121.521 278.128 118.008 275.786 113.714C272.665 108.249 269.152 102.784 265.25 97.7089C262.518 93.8054 260.957 87.5597 261.348 83.2657L264.469 59.4539C264.86 57.1118 263.299 53.5985 261.738 51.6467L237.933 30.1771C237.543 29.7867 237.152 29.7867 237.152 29.7867C237.152 29.7867 236.762 30.1771 236.762 30.5674L229.738 48.9143C228.957 51.6468 227.006 53.5985 224.274 54.3793C221.933 55.5503 218.811 55.16 216.47 53.9889C213.348 52.4275 209.835 51.2564 206.714 50.0853C202.811 48.9143 197.348 45.0107 195.397 40.3264L181.738 9.48813C180.958 7.53635 178.616 6.36527 176.665 6.75563L159.884 9.48813C159.104 9.48813 158.714 9.87849 158.323 10.2689C157.933 10.6592 157.933 11.4399 158.323 11.8303L167.689 43.0589C169.25 47.7432 167.299 53.5985 163.397 57.1118C161.836 58.6732 160.275 60.2346 159.104 61.7961C155.592 66.4803 149.348 67.2611 145.055 63.7478L123.982 47.7432C123.592 47.3528 123.592 47.3528 123.202 47.3528C123.202 47.3528 123.202 47.7432 122.811 48.1335L116.958 71.9453C116.567 74.2875 117.348 77.8007 118.909 79.7525L139.592 101.613C142.714 104.735 145.055 110.591 145.445 115.275C145.836 120.35 146.226 125.815 147.006 131.28C147.787 136.745 144.665 142.21 139.592 144.161L126.323 148.846C125.543 149.236 125.153 149.626 124.762 150.407C124.372 151.188 124.372 151.969 124.762 152.359L137.64 187.101C138.421 189.053 140.762 191.004 143.104 191.004L159.104 191.395C164.177 191.395 169.64 194.908 171.982 199.202C175.104 204.667 178.616 210.132 182.518 215.207C185.25 219.11 186.811 225.356 186.421 229.65L183.299 253.462C182.909 255.804 184.47 259.317 186.031 261.269L209.835 282.738C210.226 283.129 210.616 283.129 210.616 283.129C210.616 283.129 211.006 282.738 211.006 282.348L218.031 264.001C218.811 261.269 220.762 259.317 223.494 258.536C226.226 257.365 228.957 257.756 231.299 258.927C234.421 260.488 237.933 261.659 241.055 262.83C244.957 264.001 250.421 267.905 252.372 272.589L266.03 303.427C266.811 305.379 269.152 306.55 271.104 306.16L287.884 303.427C288.665 303.427 289.055 303.037 289.445 302.647C289.835 302.256 289.835 301.476 289.445 301.085L280.079 269.857C278.518 265.172 280.469 259.317 284.372 255.804C285.933 254.242 287.494 253.071 288.665 251.119C291.006 248.387 293.738 247.216 296.86 247.216C299.201 247.216 301.543 247.997 303.103 249.558ZM209.055 210.913C182.518 187.101 166.518 143.771 173.543 114.494C176.665 101.222 184.47 92.2439 195.006 88.7307C207.884 84.8271 223.884 89.9018 238.713 103.564C265.25 127.376 281.25 170.706 274.226 199.983C271.104 213.255 263.299 222.233 252.762 225.746C250.03 226.527 246.909 226.917 243.787 226.917C232.86 226.917 220.762 221.452 209.055 210.913ZM197.348 95.7572C189.153 98.0993 183.689 105.126 180.957 116.056C174.323 142.99 189.153 183.197 214.128 205.448C227.006 216.768 240.274 221.843 250.811 218.329C259.006 215.987 264.469 208.961 267.201 198.031C273.835 171.096 259.006 130.889 234.031 108.639C223.884 99.6607 213.348 94.5861 204.372 94.5861C201.64 94.9764 199.299 95.3668 197.348 95.7572Z" fill="#E0E0E0"/>
<path d="M32.7477 190.597L24.5599 171.861C24.17 170.69 22.2205 169.129 20.661 168.739C18.7115 167.958 16.3722 167.177 14.0328 166.006C13.6429 166.006 13.6429 166.006 12.8631 166.397L8.57435 177.716C7.79456 179.668 6.62489 180.839 4.67542 181.229C3.11584 181.619 1.1663 181.229 -0.393276 179.668L-14.8193 166.787C-17.1586 164.835 -18.7183 160.932 -18.3284 157.81L-16.3789 143.368C-16.3789 141.806 -16.7688 139.464 -17.9385 138.293C-20.2779 135.171 -22.6171 131.658 -24.5666 128.145C-25.3464 126.974 -26.9061 126.193 -28.0757 125.803H-37.8231C-41.3321 125.803 -44.4513 123.461 -45.621 119.948L-53.4188 98.8709C-54.1986 97.3096 -53.8087 95.358 -53.0289 93.7968C-52.2491 92.2355 -50.6896 91.0645 -49.13 90.2839L-40.9422 87.5516C-40.1624 87.1613 -39.7726 86.3806 -39.7726 85.2097C-40.1624 81.6968 -40.5523 78.1839 -40.9422 75.0613C-40.9422 73.5 -42.1119 71.1581 -42.8917 69.9871L-55.3683 56.7162C-57.7077 54.3742 -58.4874 50.471 -57.7076 47.3484L-54.1985 32.9065C-53.8087 30.9549 -52.639 29.3936 -50.6895 29.0033C-49.13 28.2227 -47.1805 28.613 -45.621 30.1743L-33.1443 39.542C-32.3645 39.9323 -31.9747 39.542 -31.5848 39.1517C-30.4151 37.9807 -29.6352 36.8097 -28.4655 35.6388C-27.6858 34.8581 -26.906 33.2968 -27.2959 32.1259L-32.7544 13.0001C-33.1443 11.0485 -33.1444 9.48723 -31.9747 7.92594C-31.1949 6.36465 -29.2454 5.19368 -27.6858 5.19368L-17.5486 3.63239C-14.0395 3.24207 -10.5304 5.19368 -8.97087 8.31626L-0.783195 27.0517C-0.393303 28.2227 1.55617 29.784 3.11574 30.1743C5.06521 30.9549 7.40462 31.7356 9.74398 32.9065C10.1339 32.9065 10.1338 32.9065 10.9136 32.5162L15.2025 21.1969C15.9823 19.2453 17.1519 18.0743 19.1014 17.684C21.0509 17.2937 22.6105 17.684 24.1701 19.2453L38.5961 32.1259C40.9354 34.0775 42.495 37.9807 42.1051 41.1033L40.1556 55.5452C40.1556 57.1065 40.5456 59.4484 41.7153 60.6194C44.0547 63.742 46.394 67.2549 48.3434 70.7678C49.1232 71.9387 50.6828 72.7194 51.8524 73.1097H61.5998C65.1088 73.1097 68.228 75.4516 69.3977 78.9645L77.1955 100.042C77.9753 101.603 77.5855 103.555 76.8057 105.116C76.0259 106.677 74.4664 107.848 72.9068 108.629L64.719 111.361C63.9392 111.752 63.5493 112.532 63.5493 113.703C63.9391 117.216 64.3291 120.729 64.719 123.852C64.719 125.413 65.8887 127.755 66.6685 128.926L79.145 142.197C81.4844 144.539 82.2642 148.442 81.4844 151.564L77.9754 166.006C77.5855 167.958 76.4158 169.519 74.4663 169.91C72.9068 170.69 70.9572 170.3 69.3977 169.129L56.5312 159.371C55.7514 158.98 55.3616 159.371 54.9717 159.761C53.802 160.932 53.0221 162.103 51.8524 163.274C51.0727 164.055 50.2929 165.616 50.6828 166.787L56.1413 185.913C56.5312 187.864 56.5313 189.426 55.3616 190.987C54.5818 192.548 52.6323 193.719 51.0727 193.719L40.9355 195.28C40.5456 195.28 40.1557 195.28 39.7658 195.28C37.0366 195.671 33.9174 193.719 32.7477 190.597ZM60.4302 155.077L72.9068 164.835L76.4158 150.393C76.8057 149.222 76.0258 147.271 75.2461 146.1L62.7695 132.829C60.8201 130.877 59.2605 126.974 59.2605 124.242C59.2605 121.119 58.8706 117.997 58.0908 114.484C57.7009 110.971 59.6504 107.458 63.1595 106.287L71.3471 103.555C71.737 103.555 71.7371 103.164 72.127 103.164C72.127 103.164 72.127 102.774 72.127 102.384L64.3291 81.3064C63.9392 80.1355 62.7695 79.3548 61.5998 79.3548H51.8524C48.7333 79.3548 45.2243 77.0129 43.6648 74.2807C41.7153 71.1581 39.7658 67.6452 37.4265 64.5226C35.8669 62.1807 34.6972 58.2775 35.0871 55.1549L37.0365 40.713C37.0365 39.542 36.2568 37.2001 35.477 36.4194L21.0509 23.5388L16.762 34.8581C15.9822 36.4194 14.8126 37.9807 13.253 38.371C11.6934 39.1517 9.74398 39.1517 7.79452 37.9807C5.84505 37.2001 3.89558 36.4194 1.94611 35.6388C-0.783146 34.8581 -3.90225 32.5162 -5.07193 29.3936L-13.2597 10.6582C-13.6496 9.87754 -14.8193 9.0969 -15.989 9.0969L-26.1263 10.6582L-26.5161 7.92594V11.4388L-21.0576 30.5646C-20.2778 33.6872 -21.4475 37.5904 -23.7869 39.9323C-24.5667 40.713 -25.3464 41.4936 -26.5161 42.6646C-28.8554 45.7872 -33.1444 46.1775 -35.8736 43.8355L-48.3501 34.0775L-51.8592 48.5194C-52.2491 49.6904 -51.4693 51.642 -50.6895 52.813L-38.2129 66.0839C-36.2634 68.0355 -34.7039 71.9387 -34.7039 74.671C-34.7039 77.7935 -34.314 80.9161 -33.5342 84.429C-33.1443 87.9419 -35.0938 91.4548 -38.6028 92.6258L-46.7906 95.358C-47.1805 95.358 -47.1805 95.7484 -47.5704 95.7484C-47.5704 95.7484 -47.5704 96.1387 -47.5704 96.529L-39.7726 117.606C-39.3827 118.777 -38.2129 119.558 -37.0433 119.558H-27.2959C-24.1768 119.558 -20.6677 121.9 -19.1081 124.632C-17.1587 127.755 -15.2092 131.268 -12.8698 134.39C-11.3102 136.732 -10.1406 140.635 -10.5305 143.758L-12.48 158.2C-12.48 159.371 -11.7001 161.713 -10.9203 162.493L3.50566 175.374L7.79452 164.055C8.5743 162.493 9.74396 160.932 11.3035 160.542C12.8631 159.761 14.8126 159.761 16.762 160.932C18.7115 161.713 20.661 162.493 22.6104 163.274C25.3397 164.055 28.4589 166.397 29.6286 169.519L37.8164 188.255C38.2063 189.035 39.3759 189.816 40.5456 189.816L50.6828 188.255L51.0727 187.474L45.6142 168.348C44.8345 165.226 46.0041 161.322 48.3434 158.98C49.1232 158.2 49.903 157.419 51.0727 156.248C52.6323 154.297 54.5817 153.516 56.5312 153.516C57.7009 153.906 59.2605 154.297 60.4302 155.077ZM2.72594 132.439C-13.6496 117.606 -23.3969 91.4548 -18.7182 73.1097C-16.7687 64.9129 -12.09 59.0581 -5.46185 57.1065C2.72592 54.7646 12.4732 57.8871 21.4408 66.0839C37.8163 80.5258 47.5637 107.068 43.2749 125.413C41.3254 133.61 36.6467 139.464 30.0185 141.416C28.069 141.806 26.5094 142.197 24.5599 142.197C17.1519 142.587 9.74403 139.074 2.72594 132.439ZM-3.90229 62.9613C-8.58102 64.5226 -11.7001 68.4258 -13.2597 75.0613C-17.1587 91.0645 -8.19107 115.264 6.62489 128.535C14.4228 135.561 22.2206 138.293 28.069 136.342C32.7478 134.781 35.8669 130.877 37.4265 124.242C41.3254 108.239 32.3578 84.0387 17.5419 70.7678C11.3036 65.3032 5.06526 62.571 -0.00336075 62.571C-1.56293 62.1807 -2.73262 62.571 -3.90229 62.9613Z" fill="#E0E0E0"/>
</svg>
