<svg width="289" height="229" viewBox="0 0 289 229" fill="none" xmlns="http://www.w3.org/2000/svg">
<path d="M230.768 223.852L220.825 201.361C219.973 199.653 217.7 197.945 215.995 197.091C213.439 196.237 210.882 195.098 208.325 193.959C207.757 193.675 207.473 193.675 206.905 193.959C206.621 193.959 206.337 194.529 206.053 194.813L200.939 208.194C200.087 210.187 198.666 211.61 196.678 212.179C194.689 212.749 192.701 212.179 191.28 210.471L173.951 194.813C171.395 192.536 169.69 187.981 169.974 184.565L172.247 167.199C172.531 165.206 171.679 162.074 170.542 160.651C167.702 156.95 165.145 152.68 162.588 148.694C161.736 147.271 159.463 145.847 157.759 145.847L146.111 145.563C142.418 145.563 138.441 142.716 137.021 139.299L127.646 113.962C127.078 111.969 127.078 109.977 127.93 108.268C128.782 106.56 130.203 105.137 132.191 104.283L141.85 100.867C142.987 100.297 143.839 98.8738 143.839 97.4503C143.271 93.18 142.702 89.1944 142.702 85.2088C142.702 83.216 141.282 80.0844 140.146 78.6609L125.089 62.7184C122.533 60.1563 121.396 55.6012 122.249 51.9003L126.51 34.5344C127.078 32.2569 128.498 30.8334 130.203 30.2641C131.907 29.6947 134.18 29.9794 135.885 31.4028L151.225 43.075C152.361 43.9291 153.498 43.3597 154.066 42.5056C155.202 41.0822 156.338 39.6588 157.759 38.52C159.179 37.3813 159.747 35.1038 159.463 33.6803L152.645 10.9053C152.077 8.91251 152.361 6.91969 153.498 5.21157C154.634 3.50344 156.338 2.36469 158.327 2.08L170.542 0.0871963C174.235 -0.482179 178.497 1.79532 180.201 5.21157L190.144 27.7019C190.712 29.41 193.269 31.1181 194.973 31.9722C197.53 32.8263 200.087 33.965 202.644 35.1038C203.212 35.3884 203.78 35.3884 204.064 35.1038C204.348 35.1038 204.632 34.5344 204.916 34.2497L210.03 20.8694C210.882 18.8766 212.302 17.4531 214.291 16.8838C216.28 16.3144 218.268 16.8838 219.689 18.5919L237.017 34.2497C239.574 36.5272 241.279 41.0822 240.995 44.4984L238.722 61.8644C238.438 63.8572 239.29 66.9888 240.426 68.4122C243.267 72.1131 245.824 76.0988 248.381 80.3691C249.233 81.7925 251.506 83.2159 253.21 83.2159L264.857 83.5006C268.55 83.5006 272.528 86.3475 273.948 89.7638L283.323 115.101C283.891 117.094 283.891 119.087 283.039 120.795C282.186 122.503 280.766 123.926 278.777 124.78L269.119 128.197C267.982 128.766 267.13 130.189 267.13 131.613C267.698 135.883 268.266 139.869 268.266 143.854C268.266 145.847 269.687 148.979 270.823 150.402L285.879 166.345C288.436 168.907 289.572 173.462 288.72 177.163L284.459 194.529C283.891 196.806 282.47 198.23 280.766 198.799C279.061 199.368 276.789 199.084 275.084 197.66L259.744 185.988C258.608 185.134 257.471 185.703 256.903 186.558C255.767 187.981 254.63 189.404 253.21 190.543C251.79 191.682 251.221 193.959 251.506 195.383L258.324 218.158C258.892 220.151 258.608 222.143 257.471 223.852C256.335 225.56 254.631 226.698 252.642 226.983L240.426 228.976C240.142 228.976 239.574 228.976 239.29 228.976C235.597 229.261 232.188 226.983 230.768 223.852ZM262.869 182.003L278.209 193.675C278.493 193.959 278.493 193.959 278.777 193.959C278.777 193.959 278.777 193.675 279.061 193.39L283.323 176.024C283.607 174.316 283.039 171.754 281.902 170.33L266.846 154.388C264.573 152.11 262.869 147.84 262.585 144.424C262.301 140.723 262.017 136.737 261.448 132.752C260.88 128.766 263.153 124.78 266.846 123.357L276.221 119.941C276.789 119.656 277.073 119.371 277.357 118.802C277.641 118.232 277.641 117.663 277.357 117.378L267.982 91.7566C267.414 90.3331 265.71 88.9097 264.005 88.9097L252.358 88.625C248.665 88.625 244.688 86.0628 242.983 82.9313C240.71 78.9456 238.154 74.96 235.313 71.2591C233.324 68.4122 232.188 63.8572 232.472 60.7256L234.745 43.3597C235.029 41.6516 233.893 39.0894 232.756 37.6659L215.427 22.0081C215.143 21.7234 214.859 21.7234 214.859 21.7234C214.859 21.7234 214.575 22.0081 214.575 22.2928L209.462 35.6731C208.893 37.666 207.473 39.0894 205.484 39.6588C203.78 40.5128 201.507 40.2281 199.803 39.3741C197.53 38.2353 194.973 37.3813 192.701 36.5272C189.86 35.6731 185.883 32.8263 184.462 29.41L174.52 6.91969C173.951 5.49625 172.247 4.64219 170.827 4.92688L158.611 6.91969C158.043 6.91969 157.759 7.20438 157.475 7.48907C157.191 7.77376 157.191 8.34313 157.475 8.62782L164.293 31.4028C165.429 34.8191 164.009 39.0894 161.168 41.6516C160.031 42.7903 158.895 43.9291 158.043 45.0678C155.486 48.4841 150.941 49.0534 147.816 46.4913L132.476 34.8191C132.191 34.5344 132.192 34.5344 131.907 34.5344C131.907 34.5344 131.907 34.8191 131.623 35.1038L127.362 52.4697C127.078 54.1778 127.646 56.74 128.783 58.1634L143.839 74.1059C146.111 76.3835 147.816 80.6538 148.1 84.07C148.384 87.771 148.668 91.7566 149.236 95.7422C149.804 99.7278 147.532 103.713 143.839 105.137L134.18 108.553C133.612 108.838 133.328 109.123 133.044 109.692C132.76 110.261 132.76 110.831 133.044 111.115L142.418 136.453C142.987 137.876 144.691 139.299 146.396 139.299L158.043 139.584C161.736 139.584 165.713 142.146 167.418 145.278C169.69 149.263 172.247 153.249 175.088 156.95C177.076 159.797 178.213 164.352 177.929 167.483L175.656 184.849C175.372 186.558 176.508 189.12 177.644 190.543L194.973 206.201C195.257 206.486 195.542 206.486 195.542 206.486C195.542 206.486 195.826 206.201 195.826 205.916L200.939 192.536C201.507 190.543 202.928 189.12 204.916 188.55C206.905 187.696 208.893 187.981 210.598 188.835C212.871 189.974 215.427 190.828 217.7 191.682C220.541 192.536 224.518 195.383 225.938 198.799L235.881 221.289C236.449 222.713 238.154 223.567 239.574 223.282L251.79 221.289C252.358 221.289 252.642 221.005 252.926 220.72C253.21 220.435 253.21 219.866 252.926 219.581L246.108 196.806C244.972 193.39 246.392 189.12 249.233 186.558C250.369 185.419 251.506 184.565 252.358 183.141C254.062 181.148 256.051 180.294 258.324 180.294C260.028 180.294 261.732 180.864 262.869 182.003ZM194.405 153.818C175.088 136.453 163.44 104.852 168.554 83.5006C170.827 73.8213 176.508 67.2734 184.178 64.7113C193.553 61.8644 205.2 65.5653 215.995 75.5294C235.313 92.8953 246.96 124.496 241.847 145.847C239.574 155.527 233.893 162.074 226.222 164.637C224.234 165.206 221.961 165.491 219.689 165.491C211.734 165.491 202.928 161.505 194.405 153.818ZM185.883 69.8356C179.917 71.5438 175.94 76.6681 173.951 84.6394C169.122 104.283 179.917 133.606 198.098 149.833C207.473 158.089 217.132 161.79 224.802 159.228C230.768 157.519 234.745 152.395 236.733 144.424C241.563 124.78 230.768 95.4575 212.586 79.2303C205.2 72.6825 197.53 68.9816 190.996 68.9816C189.008 69.2663 187.303 69.5509 185.883 69.8356Z" fill="#E0E0E0"/>
<path d="M66.0607 139.002L60.1003 125.338C59.8165 124.484 58.3973 123.346 57.262 123.061C55.8429 122.492 54.14 121.922 52.437 121.068C52.1532 121.068 52.1531 121.068 51.5855 121.353L48.4634 129.608C47.8958 131.031 47.0443 131.885 45.6252 132.17C44.4899 132.455 43.0707 132.17 41.9354 131.031L31.4338 121.638C29.7309 120.214 28.5955 117.368 28.8793 115.09L30.2985 104.558C30.2985 103.419 30.0146 101.711 29.1632 100.857C27.4602 98.5801 25.7573 96.0181 24.3382 93.4561C23.7705 92.6022 22.6351 92.0328 21.7837 91.7482H14.688C12.1335 91.7482 9.86292 90.0402 9.01144 87.4782L3.33491 72.1065C2.76725 70.9679 3.0511 69.5446 3.61875 68.4059C4.18641 67.2673 5.32171 66.4133 6.45702 65.844L12.4174 63.8514C12.9851 63.5667 13.2688 62.9974 13.2688 62.1434C12.985 59.5814 12.7012 57.0195 12.4174 54.7422C12.4174 53.6035 11.5659 51.8956 10.9983 51.0416L1.91577 41.3631C0.212812 39.6551 -0.354773 36.8085 0.212881 34.5312L2.76731 23.9987C3.05113 22.5754 3.9026 21.4368 5.32173 21.1521C6.45704 20.5828 7.87614 20.8675 9.01144 22.0061L18.0939 28.838C18.6616 29.1227 18.9454 28.838 19.2292 28.5533C20.0807 27.6993 20.6484 26.8454 21.4999 25.9914C22.0675 25.4221 22.6352 24.2834 22.3513 23.4294L18.3778 9.48101C18.094 8.0577 18.0939 6.91906 18.9454 5.78041C19.513 4.64177 20.9322 3.78778 22.0675 3.78778L29.447 2.64913C32.0015 2.36447 34.5559 3.78778 35.6912 6.06507L41.6515 19.7288C41.9354 20.5828 43.3545 21.7214 44.4898 22.0061C45.9089 22.5754 47.6119 23.1448 49.3149 23.9987C49.5987 23.9987 49.5987 23.9987 50.1663 23.7141L53.2885 15.4589C53.8561 14.0356 54.7076 13.1816 56.1267 12.8969C57.5459 12.6123 58.6812 12.8969 59.8165 14.0356L70.3181 23.4294C72.021 24.8527 73.1563 27.6993 72.8725 29.9766L71.4534 40.5091C71.4534 41.6478 71.7373 43.3557 72.5887 44.2097C74.2917 46.487 75.9946 49.049 77.4137 51.6109C77.9814 52.4649 79.1167 53.0342 79.9682 53.3189H87.0638C89.6183 53.3189 91.8889 55.0268 92.7404 57.5888L98.4169 72.9605C98.9846 74.0992 98.7008 75.5225 98.1331 76.6611C97.5655 77.7998 96.4302 78.6538 95.2949 79.2231L89.3345 81.2157C88.7668 81.5004 88.483 82.0697 88.483 82.9237C88.7668 85.4856 89.0507 88.0476 89.3345 90.3249C89.3345 91.4635 90.186 93.1715 90.7536 94.0255L99.836 103.704C101.539 105.412 102.107 108.259 101.539 110.536L98.9846 121.068C98.7008 122.492 97.8493 123.63 96.4302 123.915C95.2949 124.484 93.8757 124.2 92.7404 123.346L83.3741 116.229C82.8065 115.944 82.5227 116.229 82.2388 116.514C81.3873 117.368 80.8196 118.222 79.9682 119.076C79.4005 119.645 78.8329 120.784 79.1167 121.638L83.0903 135.586C83.3741 137.009 83.3742 138.148 82.5227 139.287C81.955 140.425 80.5359 141.279 79.4006 141.279L72.021 142.418C71.7372 142.418 71.4534 142.418 71.1696 142.418C69.1828 142.703 66.9121 141.279 66.0607 139.002ZM86.2124 113.098L95.2949 120.214L97.8493 109.682C98.1331 108.828 97.5654 107.405 96.9978 106.551L87.9154 96.8721C86.4962 95.4488 85.3609 92.6022 85.3609 90.6095C85.3609 88.3322 85.0771 86.055 84.5094 83.493C84.2256 80.931 85.6448 78.3691 88.1992 77.5151L94.1595 75.5225C94.4433 75.5225 94.4434 75.2378 94.7272 75.2378C94.7272 75.2378 94.7272 74.9531 94.7272 74.6685L89.0507 59.2968C88.7668 58.4428 87.9153 57.8735 87.0638 57.8735H79.9682C77.6975 57.8735 75.1432 56.1655 74.0079 54.1729C72.5887 51.8956 71.1696 49.3336 69.4666 47.0563C68.3313 45.3484 67.4798 42.5017 67.7636 40.2244L69.1828 29.692C69.1828 28.838 68.6151 27.13 68.0475 26.5607L57.5459 17.1669L54.4237 25.422C53.8561 26.5607 53.0046 27.6993 51.8693 27.984C50.734 28.5533 49.3149 28.5533 47.8958 27.6993C46.4766 27.13 45.0575 26.5607 43.6384 25.9914C41.6516 25.4221 39.381 23.7141 38.5295 21.4368L32.5691 7.77303C32.2853 7.20371 31.4338 6.6344 30.5823 6.6344L23.2028 7.77303L22.919 5.78041V8.34236L26.8926 22.2908C27.4602 24.5681 26.6087 27.4147 24.9058 29.1226C24.3381 29.692 23.7705 30.2613 22.919 31.1153C21.2161 33.3926 18.0939 33.6772 16.1071 31.9693L7.02471 24.8527L4.47028 35.3852C4.18646 36.2392 4.75408 37.6625 5.32173 38.5165L14.4042 48.195C15.8234 49.6183 16.9586 52.4649 16.9586 54.4575C16.9586 56.7348 17.2424 59.0121 17.8101 61.5741C18.0939 64.136 16.6748 66.698 14.1204 67.5519L8.16 69.5446C7.87617 69.5446 7.87614 69.8292 7.59231 69.8292C7.59231 69.8292 7.59231 70.1139 7.59231 70.3986L13.2688 85.7703C13.5527 86.6243 14.4042 87.1936 15.2557 87.1936H22.3513C24.622 87.1936 27.1764 88.9016 28.3117 90.8942C29.7309 93.1715 31.15 95.7335 32.853 98.0107C33.9883 99.7187 34.8397 102.565 34.5559 104.843L33.1367 115.375C33.1367 116.229 33.7044 117.937 34.2721 118.506L44.7736 127.9L47.8958 119.645C48.4634 118.506 49.3149 117.368 50.4502 117.083C51.5855 116.514 53.0046 116.514 54.4237 117.368C55.8429 117.937 57.262 118.506 58.6811 119.076C60.6679 119.645 62.9386 121.353 63.7901 123.63L69.7505 137.294C70.0343 137.863 70.8857 138.433 71.7372 138.433L79.1167 137.294L79.4006 136.725L75.427 122.776C74.8593 120.499 75.7108 117.652 77.4137 115.944C77.9814 115.375 78.5491 114.806 79.4006 113.952C80.5359 112.528 81.955 111.959 83.3741 111.959C84.2256 112.244 85.3609 112.528 86.2124 113.098ZM44.206 96.5874C32.2853 85.7703 25.1896 66.698 28.5956 53.3189C30.0147 47.341 33.4206 43.0711 38.2457 41.6478C44.206 39.9398 51.3017 42.2171 57.8297 48.195C69.7504 58.7274 76.8461 78.0844 73.724 91.4635C72.3049 97.4414 68.899 101.711 64.0739 103.135C62.6548 103.419 61.5194 103.704 60.1003 103.704C54.7076 103.989 49.3149 101.427 44.206 96.5874ZM39.381 45.9177C35.975 47.0563 33.7044 49.9029 32.5691 54.7422C29.7309 66.4133 36.2589 84.0623 47.0443 93.7408C52.7209 98.8647 58.3974 100.857 62.6548 99.434C66.0607 98.2954 68.3313 95.4488 69.4666 90.6095C72.3049 78.9384 65.7768 61.2894 54.9914 51.6109C50.4502 47.6256 45.909 45.633 42.2192 45.633C41.0839 45.3484 40.2324 45.633 39.381 45.9177Z" fill="#E0E0E0"/>
</svg>
